<?xml version="1.0" encoding="UTF-8"?>
<svg id="Layer_2" data-name="Layer 2" xmlns="http://www.w3.org/2000/svg" width="29.78954" height="30.88116" viewBox="0 0 29.78954 30.88116">
  <defs>
    <style>
      .cls-1 {
        fill: #111;
      }

      .cls-2 {
        fill: #00aeef;
      }
    </style>
  </defs>
  <g id="Layer_1-2" data-name="Layer 1">
    <g>
      <path class="cls-1" d="M10.57606,23.90533c-.51941.47771-.40442-.07517-.55144-.1095-.60651-.14163-1.44493.17243-2.03805-.24731l11.72662-12.63677-12.14039,12.5501c-.78954-.68616.06446-2.02584-.9079-2.39119l1.6195-1.81612-2.86086-5.36853c-.4742-.52038-.92352.25079-1.40145.08167.71544-.37519,2.12451-2.25076,2.64763-2.48457.49118-.21953.67357.31039,1.09765.13252L26.32144,2.48799l-7.18344,7.5991c-1.47772.7584-3.50356.80324-4.24977,2.52289-.18461.42544-.10433.79848-.384,1.26787-.79354,1.33187-3.62479,3.44853-4.6987,4.88211-.15199.2029-.63433.79261-.08757.73924l5.21459-5.52341c.27824-2.59674,2.26249-2.39139,4.01775-3.25048,1.57308-.76993,4.55577-4.62288,5.96481-6.09383.42538-.44407,3.22661-3.44678,3.47123-3.46331.07418-.00501.36651.28102.08343.40983l-8.25959,9.0857c-.9726,1.989-.615,4.54933-3.31422,5.11032l-5.08579,5.48638.22069.38651,4.86689-5.37554c.3685-.41867.9479-.34917,1.39082-.59142,1.78638-.97704,1.48889-3.69601,2.58215-5.18164l6.60548-7.02076-7.68367,18.51896.39677.59097-2.54092,2.85903c-.30419-.33319.63852-.95796.24748-1.23574-1.02603-.72885-4.15526-.9543-5.41075-1.70346-.93455-.27224-1.38307.91426-1.90905,1.39801Z"/>
      <path class="cls-1" d="M4.51914,26.27287c-1.17717-1.82561.33313-2.33172,1.56529-3.4371l1.1623.7929-2.31465,2.48174-.41295.16246Z"/>
      <path class="cls-1" d="M4.8476,26.76685l2.72523-2.80356.87705.68691c.30243.484-1.53785,2.26091-1.79254,2.37293-.38367.16876-1.35995-.21674-1.80974-.25629Z"/>
      <path class="cls-1" d="M1.95645,29.07856l-.38819-.54685c.10036-.495.78405-.83034.89692-1.25986.0856-.32573-.16685-.73269-.06613-1.20911.04045-.19137.63405-1.10789.71371-1.10776l1.23384,1.73116-2.39014,2.39242Z"/>
      <path class="cls-1" d="M2.11243,29.19766c.87197-.88359,2.18671-2.23466,2.48569-2.23538.60193.51941,1.46868.63262,2.23115.79946-.63567,1.07747-2.25611.75421-2.97101,1.07415-.20916.0936-.989.9798-1.21222.97569l-.53362-.61392Z"/>
      <path class="cls-1" d="M5.67225,18.67549l-.15593.751-3.47551,3.54289-.46574-1.60198c.39351-1.32249,1.22275-.44232,1.7775-.62898l2.31969-2.06292Z"/>
      <path class="cls-1" d="M8.8117,28.58429c1.12332-1.12282,2.16708-2.44789,3.38601-3.46758.18562-.15527.26777-.40003.57762-.32927.22107.20957-1.89159,2.16566-1.96022,2.42912-.10805.41476.49766.78389.23597,1.20602-.38668.62374-1.6561.12556-2.23939.16171Z"/>
      <path class="cls-1" d="M7.32585,28.41987c-.07129-.31051-.24963-1.21712-.09539-1.4031.53055-.63974,1.23352-1.51371,1.82605-2.12662.49705-.51414,1.57605-.29916,2.23137-.59905.14389.15254-.52064.91948-.65485,1.07793-.64935.76664-1.95997,2.08333-2.72955,2.72158-.18597.15424-.26712.40056-.57762.32927Z"/>
      <path class="cls-1" d="M6.33226,19.99624l-.05902,2.38933-2.75573,2.38933c-.37405-.2994-.94074-.88229-.73527-1.1446.97944-1.25038,2.39045-2.53293,3.55002-3.63405Z"/>
      <path class="cls-1" d="M12.94304,24.62169c.07545-.69028-.51934-.74787-.82679-1.1549l1.81606.33047c.05412.05227-.79105,1.00916-.98928.82443Z"/>
      <path class="cls-1" d="M5.67313,18.50789l.82416-.98933.66248,1.48487c-.57635-.13695-.76464-.69345-1.48663-.49554Z"/>
      <path class="cls-2" d="M20.73461,21.58836L29.78954.0016c-.44287-.02222-.823.19177-1.21387.35379-6.93188,2.8743-13.81201,7.29193-20.75244,10.30264l-.49829.07843c.38965-.76743-.40161-.80273-.91772-.50229-1.07666.62671-2.48047,3.12408-3.71582,3.88092-.76001,1.78653,1.77344.2796,2.29736.61148l1.32373,2.54047c-.94092.41174-2.22607,2.4722-2.95776,2.80774-.45215.20746-.98413-.19122-1.52588-.08261-.0874.01755-.92358,1.01361-.9353,1.22464,0,0,.37817,2.08447.48657,2.73697l.66699,2.73236c-.02588.92923-2.30994,2.40742-2.02201,3.43297.06679.2379.16269,1.13246,2.17593.59061.73315-.28162,1.52308-1.33071,2.2411-1.46288,1.94751-.35855,4.52026.35223,6.51392.07172,1.05396-.75656.80737-1.10785.57495-2.22226l2.85107-2.95392,2.66821.73019-.29541,1.61905.4021.28156.50146-.16888c.51782-.832,3.65723-3.2739,3.8457-3.92331.30664-1.05591-1.03467-.37048-.76953-1.09262ZM6.49729,17.51079l.66248,1.48488c-.57636-.13696-.76463-.69344-1.48664-.49555l.82416-.98933ZM4.93209,26.10263l-.41295.16246c-1.17718-1.82562.33314-2.33172,1.5653-3.43711l1.16228.79291-2.31463,2.48174ZM7.57282,23.95551l.87705.68691c.30243.484-1.53786,2.26091-1.79254,2.37294-.38367.16876-1.35995-.21675-1.80974-.25629l2.72522-2.80356ZM6.17004,22.2972l-2.72202,2.30874c-.37405-.29941-.87125-.7211-.66578-.98342.97945-1.25038,2.39045-2.53292,3.55003-3.63405l-.16223,2.30874ZM2.0408,22.9616l-.46572-1.60198c.39349-1.32249,1.22273-.44233,1.77749-.62898l2.31967-2.06292-.15591.75099-3.47554,3.54289ZM1.95645,29.07079l-.38819-.54686c.10034-.495.78403-.83033.89691-1.25985.08558-.32574-.16684-.73269-.06614-1.20911.04045-.19137.63405-1.10789.7137-1.10776l1.23386,1.73117-2.39015,2.39242ZM3.85825,28.82811c-.20915.0936-.98899.98757-1.21221.98347l-.53362-.61392c1.12647-1.12553,2.1867-2.24243,2.4857-2.24315.60191.51941,1.46868.63262,2.23115.79946-.63566,1.07747-2.25612.75421-2.97103,1.07415ZM7.32585,28.4121c-.0713-.31051-.16691-1.21712-.01265-1.4031.53053-.63974,1.16456-1.44889,1.75707-2.06179.49705-.51414,1.56228-.36399,2.21761-.66388.14389.15254-.52065.91949-.65486,1.07793-.64933.76663-1.95996,2.08333-2.72954,2.72158-.18598.15423-.26712.40056-.57763.32926ZM10.81512,27.20879c-.10806.41476.49766.78389.23598,1.20601-.38669.62375-1.6561.12556-2.23942.16171,1.12332-1.12282,2.16711-2.44789,3.38603-3.46757.18561-.15528.26776-.40003.57761-.32926.22108.20956-1.89158,2.16566-1.9602,2.42912ZM12.94305,24.61391c.07544-.69028-.51935-.74787-.8268-1.1549l1.81607.33047c.05412.05227-.79105,1.00916-.98927.82442ZM17.64838,25.43875c-.3042-.33319.63853-.95796.24748-1.23574-1.02603-.72885-4.15526-.9543-5.41074-1.70346-.93454-.27225-1.38308.91425-1.90905,1.39801-.51944.47771-.40444-.07517-.55146-.1095-.60651-.14163-1.44494.17243-2.03806-.24732l11.72662-12.63677-12.14039,12.5501c-.78952-.68616.06449-2.02585-.90788-2.3912l1.61948-1.81612-2.86085-5.36853c-.47421-.52038-.92353.25078-1.40145.08167.71545-.37519,2.1245-2.25076,2.64763-2.48457.49119-.21953.67357.31039,1.09765.13252L26.32145,2.48022l-7.18345,7.5991c-1.47773.75839-3.50357.80324-4.24977,2.52289-.18463.42544-.10433.79848-.38401,1.26787-.79351,1.33188-3.62478,3.44853-4.69869,4.88212-.152.20289-.63433.79261-.08757.73924l5.2146-5.52341c3.09849-.66848,2.26249-2.39139,4.01774-3.25048,1.57309-.76992,4.55577-4.62287,5.96482-6.09383.42539-.44407,3.22661-3.44677,3.47122-3.46331.07418-.00501.36651.28102.08344.40983l-8.25959,9.08569c-.97261,1.989-.61501,4.54932-3.31422,5.11032l-5.08579,5.48637.22068.38651,4.86688-5.37554c.3685-.41866.94791-.34917,1.39082-.59141,1.78641-.97705,1.4889-3.69602,2.58215-5.18164l6.60548-7.02076-7.68367,18.51896.39678.59097-2.54092,2.85903Z"/>
    </g>
  </g>
</svg>