<svg xmlns="http://www.w3.org/2000/svg" viewBox="0 0 355.51806 355.51806" class="dc-logo dc-armed" data-dc-logo-mini="data-dc-logo-mini" role="img" aria-label="Drift Cascade" xmlns:c2pa="http://c2pa.org/manifest"><metadata><c2pa:manifest>AAAWgmp1bWIAAAAeanVtZGMycGEAEQAQgAAAqgA4m3EDYzJwYQAAABZcanVtYgAAAEdqdW1kYzJtYQARABCAAACqADibcQN1cm46YzJwYTo3YTZkNzBjZi1kMzM1LTRhMjMtYTM1ZS00ZTA4ZjNiODdlZWIAAAADl2p1bWIAAAApanVtZGMyYXMAEQAQgAAAqgA4m3EDYzJwYS5hc3NlcnRpb25zAAAAALxqdW1iAAAARGp1bWRjYm9yABEAEIAAAKoAOJtxE2MycGEuaW5ncmVkaWVudC52MwAAAAAYYzJzaBAzfH8dpt0urz9YBGXNGrEAAABwY2JvcqNpZGM6Zm9ybWF0bWltYWdlL3N2Zyt4bWxqaW5zdGFuY2VJRHgseG1wOmlpZDo0NTliZTFmZS05Y2NmLTRlYTItODVjMS1lMzdjODNlOTk4M2FscmVsYXRpb25zaGlwaHBhcmVudE9mAAAB4mp1bWIAAABBanVtZGNib3IAEQAQgAAAqgA4m3ETYzJwYS5hY3Rpb25zLnYyAAAAABhjMnNocBYSs4HyLALQj+Ny8DDvugAAAZljYm9yomdhY3Rpb25zgqJmYWN0aW9ua2MycGEub3BlbmVkanBhcmFtZXRlcnOha2luZ3JlZGllbnRzgaJjdXJseC1zZWxmI2p1bWJmPWMycGEuYXNzZXJ0aW9ucy9jMnBhLmluZ3JlZGllbnQudjNkaGFzaFggsdifoNBsHYa/luE7r8m2CiQN7atrCZvriKgj/VSOSNCkZmFjdGlvbngdY29tLmFudGhyb3BpYy5jbGF1ZGUucHJvdmlkZWRqcGFyYW1ldGVyc6F4H2NvbS5hbnRocm9waWMub3JpZ2luLWNvbmZpZGVuY2VndW5rbm93bmtkZXNjcmlwdGlvbnhmQ2xhdWRlIHByb3ZpZGVkIHRoaXMgZmlsZSBhdCB0aGUgcmVxdWVzdCBvZiBhIHVzZXIgYW5kIG1heSBoYXZlIGNyZWF0ZWQgb3IgbW9kaWZpZWQgdGhlIGZpbGUgY29udGVudHMubXNvZnR3YXJlQWdlbnShZG5hbWVmQ2xhdWRlcmFsbEFjdGlvbnNJbmNsdWRlZPUAAADIanVtYgAAAEBqdW1kY2JvcgARABCAAACqADibcRNjMnBhLmhhc2guZGF0YQAAAAAYYzJzaFGHKW7i7YD6UOZAcy31bEIAAACAY2JvcqVjYWxnZnNoYTI1NmNwYWRNAAAAAAAAAAAAAAAAAGRoYXNoWCC0/nCOjdJTTX6VcWeK7Ovq+GikvPTnraZPVxbXmXqJVmRuYW1lbmp1bWJmIG1hbmlmZXN0amV4Y2x1c2lvbnOBomVzdGFydBjuZmxlbmd0aBkeBAAAAj5qdW1iAAAAJ2p1bWRjMmNsABEAEIAAAKoAOJtxA2MycGEuY2xhaW0udjIAAAACD2Nib3KlY2FsZ2ZzaGEyNTZpc2lnbmF0dXJleE1zZWxmI2p1bWJmPS9jMnBhL3VybjpjMnBhOjdhNmQ3MGNmLWQzMzUtNGEyMy1hMzVlLTRlMDhmM2I4N2VlYi9jMnBhLnNpZ25hdHVyZWppbnN0YW5jZUlEeCx4bXA6aWlkOmRjYjdkMmI2LTkyMGItNDU0Yi1hOGNjLTQ0YTEwZDk1ZjIzNnJjcmVhdGVkX2Fzc2VydGlvbnODomN1cmx4LXNlbGYjanVtYmY9YzJwYS5hc3NlcnRpb25zL2MycGEuaW5ncmVkaWVudC52M2RoYXNoWCCx2J+g0Gwdhr+W4TuvybYKJA3tq2sJm+uIqCP9VI5I0KJjdXJseCpzZWxmI2p1bWJmPWMycGEuYXNzZXJ0aW9ucy9jMnBhLmFjdGlvbnMudjJkaGFzaFggUVfCRCOHWxiQH/UVQsAmq3O2aSJ+NGDmontdGPLVj+yiY3VybHgpc2VsZiNqdW1iZj1jMnBhLmFzc2VydGlvbnMvYzJwYS5oYXNoLmRhdGFkaGFzaFggEAaQxsw4swoK57PDSIuedd3U2lSLw2FHhlhZIpfiNUx0Y2xhaW1fZ2VuZXJhdG9yX2luZm+jZG5hbWVvQW50aHJvcGljIEZpbGVzZ3ZlcnNpb25lMS4wLjBrc3BlY1ZlcnNpb25lMi40LjAAABA4anVtYgAAAChqdW1kYzJjcwARABCAAACqADibcQNjMnBhLnNpZ25hdHVyZQAAABAIY2JvctKEWQISogEmGCFZAgowggIGMIIBjaADAgECAhRA5aAK7sI50L64g/oGQgU9Z1UTADAKBggqhkjOPQQDAzBJMRcwFQYDVQQKEw5BbnRocm9waWMsIFBCQzEuMCwGA1UEAxMlQW50aHJvcGljIENvbnRlbnQgQ3JlZGVudGlhbHMgUm9vdCBDQTAeFw0yNjA4MDcxODQzNTZaFw0yODA4MDYxOTQzNTZaMEQxFzAVBgNVBAoTDkFudGhyb3BpYywgUEJDMSkwJwYDVQQDEyBBbnRocm9waWMgQ2xhdWRlIENvbnRlbnQgU2lnbmluZzBZMBMGByqGSM49AgEGCCqGSM49AwEHA0IABJh6CmvLUBgFFNU0vUKlOVtE6djd17L5SuwX0LemFisBM3dkd/3cyjxFA3Qo5S46fX0/ihY0VZ7mfb9KF703t5OjWDBWMA4GA1UdDwEB/wQEAwIHgDAVBgNVHSUEDjAMBgorBgEEAYPoXgIBMAwGA1UdEwEB/wQCMAAwHwYDVR0jBBgwFoAUzlHiBIFOZFsj+OPEz5o+nMHXXMIwCgYIKoZIzj0EAwMDZwAwZAIwMXMdFJ4BetLLVY7ORuE9noqbbAZOZn/aArXyTwFAZfKrPzxF2vPoJNf1+UCdg1XGAjBwX1zd9WGqYkqmL5SFqw1QySjr1zJfpJM9+1rdDwSPLMOPOjKuiXjoU/pUUeG9RwmhY3BhZFkNngAAAAAAAAAAAAAAAAAAAAAAAAAAAAAAAAAAAAAAAAAAAAAAAAAAAAAAAAAAAAAAAAAAAAAAAAAAAAAAAAAAAAAAAAAAAAAAAAAAAAAAAAAAAAAAAAAAAAAAAAAAAAAAAAAAAAAAAAAAAAAAAAAAAAAAAAAAAAAAAAAAAAAAAAAAAAAAAAAAAAAAAAAAAAAAAAAAAAAAAAAAAAAAAAAAAAAAAAAAAAAAAAAAAAAAAAAAAAAAAAAAAAAAAAAAAAAAAAAAAAAAAAAAAAAAAAAAAAAAAAAAAAAAAAAAAAAAAAAAAAAAAAAAAAAAAAAAAAAAAAAAAAAAAAAAAAAAAAAAAAAAAAAAAAAAAAAAAAAAAAAAAAAAAAAAAAAAAAAAAAAAAAAAAAAAAAAAAAAAAAAAAAAAAAAAAAAAAAAAAAAAAAAAAAAAAAAAAAAAAAAAAAAAAAAAAAAAAAAAAAAAAAAAAAAAAAAAAAAAAAAAAAAAAAAAAAAAAAAAAAAAAAAAAAAAAAAAAAAAAAAAAAAAAAAAAAAAAAAAAAAAAAAAAAAAAAAAAAAAAAAAAAAAAAAAAAAAAAAAAAAAAAAAAAAAAAAAAAAAAAAAAAAAAAAAAAAAAAAAAAAAAAAAAAAAAAAAAAAAAAAAAAAAAAAAAAAAAAAAAAAAAAAAAAAAAAAAAAAAAAAAAAAAAAAAAAAAAAAAAAAAAAAAAAAAAAAAAAAAAAAAAAAAAAAAAAAAAAAAAAAAAAAAAAAAAAAAAAAAAAAAAAAAAAAAAAAAAAAAAAAAAAAAAAAAAAAAAAAAAAAAAAAAAAAAAAAAAAAAAAAAAAAAAAAAAAAAAAAAAAAAAAAAAAAAAAAAAAAAAAAAAAAAAAAAAAAAAAAAAAAAAAAAAAAAAAAAAAAAAAAAAAAAAAAAAAAAAAAAAAAAAAAAAAAAAAAAAAAAAAAAAAAAAAAAAAAAAAAAAAAAAAAAAAAAAAAAAAAAAAAAAAAAAAAAAAAAAAAAAAAAAAAAAAAAAAAAAAAAAAAAAAAAAAAAAAAAAAAAAAAAAAAAAAAAAAAAAAAAAAAAAAAAAAAAAAAAAAAAAAAAAAAAAAAAAAAAAAAAAAAAAAAAAAAAAAAAAAAAAAAAAAAAAAAAAAAAAAAAAAAAAAAAAAAAAAAAAAAAAAAAAAAAAAAAAAAAAAAAAAAAAAAAAAAAAAAAAAAAAAAAAAAAAAAAAAAAAAAAAAAAAAAAAAAAAAAAAAAAAAAAAAAAAAAAAAAAAAAAAAAAAAAAAAAAAAAAAAAAAAAAAAAAAAAAAAAAAAAAAAAAAAAAAAAAAAAAAAAAAAAAAAAAAAAAAAAAAAAAAAAAAAAAAAAAAAAAAAAAAAAAAAAAAAAAAAAAAAAAAAAAAAAAAAAAAAAAAAAAAAAAAAAAAAAAAAAAAAAAAAAAAAAAAAAAAAAAAAAAAAAAAAAAAAAAAAAAAAAAAAAAAAAAAAAAAAAAAAAAAAAAAAAAAAAAAAAAAAAAAAAAAAAAAAAAAAAAAAAAAAAAAAAAAAAAAAAAAAAAAAAAAAAAAAAAAAAAAAAAAAAAAAAAAAAAAAAAAAAAAAAAAAAAAAAAAAAAAAAAAAAAAAAAAAAAAAAAAAAAAAAAAAAAAAAAAAAAAAAAAAAAAAAAAAAAAAAAAAAAAAAAAAAAAAAAAAAAAAAAAAAAAAAAAAAAAAAAAAAAAAAAAAAAAAAAAAAAAAAAAAAAAAAAAAAAAAAAAAAAAAAAAAAAAAAAAAAAAAAAAAAAAAAAAAAAAAAAAAAAAAAAAAAAAAAAAAAAAAAAAAAAAAAAAAAAAAAAAAAAAAAAAAAAAAAAAAAAAAAAAAAAAAAAAAAAAAAAAAAAAAAAAAAAAAAAAAAAAAAAAAAAAAAAAAAAAAAAAAAAAAAAAAAAAAAAAAAAAAAAAAAAAAAAAAAAAAAAAAAAAAAAAAAAAAAAAAAAAAAAAAAAAAAAAAAAAAAAAAAAAAAAAAAAAAAAAAAAAAAAAAAAAAAAAAAAAAAAAAAAAAAAAAAAAAAAAAAAAAAAAAAAAAAAAAAAAAAAAAAAAAAAAAAAAAAAAAAAAAAAAAAAAAAAAAAAAAAAAAAAAAAAAAAAAAAAAAAAAAAAAAAAAAAAAAAAAAAAAAAAAAAAAAAAAAAAAAAAAAAAAAAAAAAAAAAAAAAAAAAAAAAAAAAAAAAAAAAAAAAAAAAAAAAAAAAAAAAAAAAAAAAAAAAAAAAAAAAAAAAAAAAAAAAAAAAAAAAAAAAAAAAAAAAAAAAAAAAAAAAAAAAAAAAAAAAAAAAAAAAAAAAAAAAAAAAAAAAAAAAAAAAAAAAAAAAAAAAAAAAAAAAAAAAAAAAAAAAAAAAAAAAAAAAAAAAAAAAAAAAAAAAAAAAAAAAAAAAAAAAAAAAAAAAAAAAAAAAAAAAAAAAAAAAAAAAAAAAAAAAAAAAAAAAAAAAAAAAAAAAAAAAAAAAAAAAAAAAAAAAAAAAAAAAAAAAAAAAAAAAAAAAAAAAAAAAAAAAAAAAAAAAAAAAAAAAAAAAAAAAAAAAAAAAAAAAAAAAAAAAAAAAAAAAAAAAAAAAAAAAAAAAAAAAAAAAAAAAAAAAAAAAAAAAAAAAAAAAAAAAAAAAAAAAAAAAAAAAAAAAAAAAAAAAAAAAAAAAAAAAAAAAAAAAAAAAAAAAAAAAAAAAAAAAAAAAAAAAAAAAAAAAAAAAAAAAAAAAAAAAAAAAAAAAAAAAAAAAAAAAAAAAAAAAAAAAAAAAAAAAAAAAAAAAAAAAAAAAAAAAAAAAAAAAAAAAAAAAAAAAAAAAAAAAAAAAAAAAAAAAAAAAAAAAAAAAAAAAAAAAAAAAAAAAAAAAAAAAAAAAAAAAAAAAAAAAAAAAAAAAAAAAAAAAAAAAAAAAAAAAAAAAAAAAAAAAAAAAAAAAAAAAAAAAAAAAAAAAAAAAAAAAAAAAAAAAAAAAAAAAAAAAAAAAAAAAAAAAAAAAAAAAAAAAAAAAAAAAAAAAAAAAAAAAAAAAAAAAAAAAAAAAAAAAAAAAAAAAAAAAAAAAAAAAAAAAAAAAAAAAAAAAAAAAAAAAAAAAAAAAAAAAAAAAAAAAAAAAAAAAAAAAAAAAAAAAAAAAAAAAAAAAAAAAAAAAAAAAAAAAAAAAAAAAAAAAAAAAAAAAAAAAAAAAAAAAAAAAAAAAAAAAAAAAAAAAAAAAAAAAAAAAAAAAAAAAAAAAAAAAAAAAAAAAAAAAAAAAAAAAAAAAAAAAAAAAAAAAAAAAAAAAAAAAAAAAAAAAAAAAAAAAAAAAAAAAAAAAAAAAAAAAAAAAAAAAAAAAAAAAAAAAAAAAAAAAAAAAAAAAAAAAAAAAAAAAAAAAAAAAAAAAAAAAAAAAAAAAAAAAAAAAAAAAAAAAAAAAAAAAAAAAAAAAAAAAAAAAAAAAAAAAAAAAAAAAAAAAAAAAAAAAAAAAAAAAAAAAAAAAAAAAAAAAAAAAAAAAAAAAAAAAAAAAAAAAAAAAAAAAAAAAAAAAAAAAAAAAAAAAAAAAAAAAAAAAAAAAAAAAAAAAAAAAAAAAAAAAAAAAAAAAAAAAAAAAAAAAAAAAAAAAAAAAAAAAAAAAAAAAAAAAAAAAAAAAAAAAAAAAAAAAAAAAAAAAAAAAAAAAAAAAAAAAAAAAAAAAAAAAAAAAAAAAAAAAAAAAAAAAAAAAAAAAAAAAAAAAAAAAAAAAAAAAAAAAAAAAAAAAAAAAAAAAAAAAAAAAAAAAAAAAAAAAAAAAAAAAAAAAAAAAAAAAAAAAAAAAAAAAAAAAAAAAAAAAAAAAAAAAAAAAAAAAAAAAAAAAAAAAAAAAAAAAAAAAAAAAAAAAAAAAAAAAAAAAAAAAAAAAAAAAAAAAAAAAAAAAAAAAAAAAAAAAAAAAAAAAAAAAAAAAAAAAAAAAAAAAAAAAAAAAAAAAAAAAAAAAAAAAAAAAAAAAAAAAAAAAAAAAAAAAAAAAAAAAAAAAAAAAAAAAAAAAAAAAAAAAAAAAAAAAAAAAAAAAAAAAAAAAAAAAAAAAAAAAAAAAAAAAAAAAAAAAAAAAAAAAAAAAAAAAAAAAAAAAAAAAAAAAAAAAAAAAAAAAAAAAAAAAAAAAAAAAAAAAAAAAAAAAAAAAAAAAAAAAAAAAAAAAAAAAAAAAAAAAAAAAAAAAAAAAAAAAAAAAAAAAAAAAAAAAAAAAAAAAAAAAAAAAAAAAAAAAAAAAAAAAAAAAAAAAAAAAAAAAAAAAAAAAAAAAAAAAAAAAAAAAAAAAAAAAAAAAAAAAAAAAAAAAAAAAAAAAAAAAAAAAAAAAAAAAAAAAAAAAAAAAAAAAAAAAAAAAAAAAAAAAAAAAAAAAAAAAAAAAAAAAAAAAAAAAAAAAAAAAAAAAAAAAAAAAAAAAAAAAAAAAAAAAAAAAAAAAAAAAAAAAAAAAAAAAAAAAAAAAAAAAAAAAAAAAAAAAAAAAAAAAAAAAAAAAAAAAAAAAAAAAAAAAAAAAAAAAAAAAAAAAAAAAAAAAAAAAAAAAAAAAAAAAAAAAAAAAAAAAAAAAAAAAAAAAAAAAAAAAAAAAAAAAAAAAAAAAAAAAAAAAAAAAAAAAAAAAAAAAAAAAAAAAAAAAAAAAAAAAAAAAAAAAAAAAAAAAAAAAAAAAAAAAAAAAAAAAAAPZYQJXLc74zNAEt8I+tRFN16DDMfONbB7mGVfXWAsb0BzdjO/HVhGHzyXG9kuA3GtvwHZdig0yPszSc6YVq+gool0o=</c2pa:manifest></metadata>
  <defs><filter id="dcm-arc-glow" x="-10%" y="-10%" width="120%" height="120%"><feGaussianBlur in="SourceAlpha" stdDeviation="7" result="b"></feGaussianBlur><feFlood flood-color="#4cfafd" flood-opacity=".85"></feFlood><feComposite in2="b" operator="in" result="g"></feComposite><feMerge><feMergeNode in="g"></feMergeNode><feMergeNode in="SourceGraphic"></feMergeNode></feMerge></filter>
    
    <filter id="dcm-glow-1" x="176.53539" y="104.0653" width="150.96" height="125.28" filterUnits="userSpaceOnUse">
      <feOffset dx="0" dy="0"></feOffset>
      <feGaussianBlur result="blur" stdDeviation="3"></feGaussianBlur>
      <feFlood flood-color="#ffa437" flood-opacity="1"></feFlood>
      <feComposite in2="blur" operator="in"></feComposite>
      <feComposite in="SourceGraphic"></feComposite>
    </filter>
    <filter id="dcm-glow-2" x="135.49539" y="23.4253" width="110.64" height="159.12" filterUnits="userSpaceOnUse">
      <feOffset dx="0" dy="0"></feOffset>
      <feGaussianBlur result="blur-2" stdDeviation="3"></feGaussianBlur>
      <feFlood flood-color="#4cfafd" flood-opacity="1"></feFlood>
      <feComposite in2="blur-2" operator="in"></feComposite>
      <feComposite in="SourceGraphic"></feComposite>
    </filter>
    <filter id="dcm-glow-3" x="4.33539" y="213.3853" width="150.96" height="138.24" filterUnits="userSpaceOnUse">
      <feOffset dx="0" dy="0"></feOffset>
      <feGaussianBlur result="blur-3" stdDeviation="10"></feGaussianBlur>
      <feFlood flood-color="#ffa437" flood-opacity="1"></feFlood>
      <feComposite in2="blur-3" operator="in"></feComposite>
      <feComposite in="SourceGraphic"></feComposite>
    </filter>
  </defs>
  <g>
    <g id="Layer_2" data-name="Layer 2">
      <g id="Layer_1-2" data-name="Layer 1">
        <rect class="cls-9" data-dc="bg" fill="none" width="355.51806" height="355.51806"></rect>
        <g data-dc="arc" filter="url(#dcm-arc-glow)">
          <path class="cls-1" fill="#4cfafd" d="M172.71996,73.738c84.49173,0,152.98583,68.49409,152.98583,152.98585,0,20.43246-4.01579,39.92414-11.28456,57.74308,8.41111-19.05544,13.09131-40.1272,13.09131-62.29493,0-85.28882-69.14026-154.4291-154.4291-154.4291S18.65436,136.88318,18.65436,222.172c0,13.49694,1.73642,26.58742,4.98937,39.06553-2.55763-11.09195-3.90962-22.64489-3.90962-34.51368,0-84.49176,68.49409-152.98585,152.98585-152.98585Z"></path>
          <g>
            <g>
              <path class="cls-12" fill="#4cfafd" d="M172.71996,73.738c84.49173,0,152.98583,68.49409,152.98583,152.98585,0,20.43246-4.01579,39.92414-11.28456,57.74308,8.41111-19.05544,13.09131-40.1272,13.09131-62.29493,0-85.28882-69.14026-154.4291-154.4291-154.4291S18.65436,136.88318,18.65436,222.172c0,13.49694,1.73642,26.58742,4.98937,39.06553-2.55763-11.09195-3.90962-22.64489-3.90962-34.51368,0-84.49176,68.49409-152.98585,152.98585-152.98585Z"></path>
            </g>
          </g>
        </g>
        <g class="cls-8" data-dc="ship" data-n="1" filter="url(#dcm-glow-1)">
          <g>
            <path class="cls-4" fill="#ffa437" d="M271.14023,193.50719l47.12824-80.23217c-1.73261-.32253-3.3437.31871-4.96924.74958-28.83357,7.64347-58.28161,21.39445-87.22048,29.5709l-2.00399.04452c1.94225-2.81629-1.15667-3.37553-3.34953-2.46583-4.57376,1.89737-11.42934,10.9904-16.69748,13.31611-3.94208,6.63442,6.83816,2.04275,8.7258,3.62828l3.86642,10.71042c-3.92539,1.12262-10.08214,8.55731-13.14207,9.49083-1.89208.57717-3.77542-1.27564-5.96726-1.13528-.35374.02266-4.17667,3.50262-4.33467,4.32775,0,0,.3835,8.41227.46358,11.04012l1.17791,11.11797c-.59553,3.64682-9.08836,7.37025-8.97961,12.33826,1.5626.96901,3.72497-2.83268,4.03103-2.78485l3.80498,3.51313-4.61511,2.35494,2.15282-3.67741c-.59139-.71902-7.03889,1.81631-5.15611,3.63658.68279,1.5437,6.22207,1.1559,7.66709.81325,3.03725-.72022,6.27191-4.6956,9.17059-4.83519,7.86246-.37868,17.62032,3.78694,25.62258,3.73993,4.55292-2.42103,3.76852-3.93572,3.44461-8.44912l12.79935-10.1232,10.12314,4.2926-2.0226,6.22127,1.43457,1.32258,2.06447-.39919c2.48166-3.00266,16.14485-10.95588,17.23227-13.41414,1.7681-3.99691-3.87958-2.00864-2.45131-4.71265ZM217.21822,169.88728l1.82162,6.20111c-2.1978-.84544-2.64412-3.13758-5.59341-2.74123l3.77178-3.45988ZM206.49196,202.90298l-1.71298.42083c-3.66835-7.8166,2.54997-9.0087,7.99064-12.70921l4.15779,3.74046-10.43544,8.54793ZM218.03443,195.84633l3.09044,3.17152c.93447,2.06716-7.25824,8.09033-8.32096,8.39645-1.60098.46115-5.2423-1.57568-6.99319-1.97018l12.22372-9.59778ZM202.48688,195.72839c-.11961-1.25819.88691-1.45749,1.6006-2.10479,2.64235-2.39635,5.86788-4.42333,8.81197-6.42996.11961,1.25819-.88691,1.45753-1.6006,2.10479-2.64228,2.3964-5.86788,4.42333-8.81197,6.42996ZM212.46343,183.16831l-13.37598,10.7707c-1.3146-1.37803-.69683-1.02288.25184-1.94719,4.52207-4.40583,10.76129-8.70933,15.91374-12.43161l-2.78961,3.60811ZM196.76926,188.99467l-.98434-6.55799c2.25204-5.00094,5.05156-1.09349,7.33605-1.53433l10.23301-6.89538-1.0128,2.87569-15.57192,12.11202ZM193.19437,213.01628l-1.23895-2.36032c.658-1.89672,3.52932-2.85483,4.20197-4.48697.51002-1.23777-.26835-2.97491.38122-4.79823.26092-.73241,3.0858-4.02787,3.3995-3.98507l3.94177,7.47461-10.68552,8.15599ZM200.8151,213.06971c-.87358.25773-3.8316,3.00223-4.70877,2.86758l-1.28439-2.67794c2.62174.47039,8.72401-7.33365,9.90225-7.17777,2.09545,2.36561,5.44988,3.27166,8.365,4.33361-3.07601,3.90714-9.28799,1.77362-12.2741,2.65452ZM214.69606,213.2714c-.11607-1.26107.89738-1.44997,1.60377-2.10072,2.42949-2.23857,6.2751-5.32553,8.93454-7.42551,2.23097-1.76157,4.5203-3.80203,7.26104-4.6356.48588.6773-2.53906,3.34586-3.15187,3.89878-2.96488,2.67539-8.82679,7.1667-12.19721,9.27255-.81449.50885-1.26488,1.43616-2.45026.9905ZM229.08028,210.38313c-.64584,1.57654,1.54439,3.35219.28951,4.87619-1.8544,2.25192-6.59065-.38438-8.90774-.5516,5.02114-3.82696,9.83633-8.4929,15.17933-11.86284.81362-.51317,1.26715-1.43375,2.45019-.99051.7597.94287-8.60113,7.52733-9.01128,8.52876ZM238.84029,201.29039c.66355-2.67922-1.64898-3.22179-2.64409-4.98841l6.97876,2.26579c.18546.23462-3.65188,3.55558-4.33467,2.72263ZM256.93851,207.0372c-1.02151-1.47401,3.02386-3.43485,1.63081-4.73667-3.65504-3.41581-15.8626-5.96486-20.41075-9.58245-3.537-1.56852-5.93372,2.86748-8.26247,4.494-2.2998,1.60615-1.55333-.5108-2.11427-.72407-2.31407-.87987-5.78368-.08769-7.8974-2.05602l52.90279-43.55672-54.4868,42.99568c-2.746-3.12212,1.32931-7.94634-2.3073-9.9017l7.3437-6.29478-8.42045-22.66712c-1.59187-2.30168-3.77124.49775-5.56417-.42214,3.01758-1.09826,9.56386-7.73895,11.74874-8.38234,2.05148-.6041,2.4887,1.58026,4.25371,1.10465l77.93616-26.10904-32.33171,26.12288c-6.22386,2.20325-14.22819,1.30465-18.08052,7.68293-.95312,1.57797-.83481,3.09014-2.18572,4.79078-3.83286,4.82559-16.10973,11.66109-21.1012,16.73852-.70647.7186-2.91957,2.78571-.73736,2.86565l23.47393-18.99097c2.47433-10.08186,10.18207-8.2197,17.55265-10.67234,6.60563-2.19804,20.40057-15.79313,26.73208-20.83987,1.91147-1.52357,14.54028-11.86552,15.51268-11.80082.2949.01964,1.29465,1.30158.11117,1.65877l-37.36005,31.40793c-4.88719,7.31916-4.83744,17.59504-15.76839,18.37233l-22.94685,18.91345.66419,1.63974,22.02567-18.59303c1.67389-1.45368,3.9195-.87237,5.79287-1.59158,7.55591-2.90077,7.82709-13.76971,12.92235-19.04186l29.74789-24.15134-40.09825,68.87475,1.24937,2.53864-11.52713,9.91413Z"></path>
            <path class="cls-4" fill="#ffa437" d="M257.95367,153.998c-1.76585.64392-3.54878,3.05695-3.48069,5.00366,4.58116,2.19969,9.06167-7.03889,3.48069-5.00366Z"></path>
            <path class="cls-4" fill="#ffa437" d="M253.01866,140.26434l-2.82125,1.26965-4.7334,5.65311c1.00921,1.315,6.88966-6.06909,7.55465-6.92276Z"></path>
          </g>
        </g>
        <g class="cls-6" data-dc="ship" data-n="2" filter="url(#dcm-glow-2)">
          <g>
            <path class="cls-11" fill="#00aeef" d="M220.13939,121.76255l16.93855-89.15904c-1.69712.27268-2.96619,1.39058-4.3176,2.32002-23.9709,16.48705-46.50077,38.78495-70.39336,55.79607l-1.82583.69889c.85904-3.22419-2.17061-2.72028-3.88584-1.16481-3.57752,3.2443-6.88801,13.84627-10.96261,17.71196-1.44201,7.38737,6.95085-.36922,9.20505.46713l7.0676,8.56687c-3.23645,2.31989-6.44964,11.1694-8.95334,13.03144-1.54817,1.15133-3.88617.06809-5.85306.91668-.31743.13696-2.68577,4.58817-2.55995,5.39785,0,0,3.11432,7.59986,4.0507,9.98697l4.7323,9.82392c.65048,3.54476-5.92672,9.7529-4.19563,14.27979,1.75325.37686,2.49089-3.82459,2.78769-3.88115l4.64798,1.9771-3.46526,3.67811.76968-4.08417c-.77921-.46616-5.8681,3.97927-3.54129,5.03279,1.13393,1.19354,6.09385-.98141,7.30844-1.77056,2.55291-1.65871,4.21831-6.37176,6.83461-7.45172,7.0965-2.92937,17.42582-2.30762,24.75961-4.97829,3.38645-3.71838,2.16872-4.85191.3893-8.89064l8.43096-13.49968,10.70648.61842.18518,6.37769,1.75176.74361,1.76493-1.04447c1.29323-3.57247,11.23004-15.36288,11.42156-17.97758.31146-4.25128-4.2225-.57088-3.79864-3.5232ZM162.86227,117.77513l3.70907,5.09695c-2.29604-.05481-3.45855-2.01336-6.03702-.68097l2.32795-4.41598ZM163.85185,151.61846l-1.43502.94893c-5.93552-5.97424-.61607-9.11081,3.16557-14.29575l5.04664,2.07003-6.77719,11.27678ZM172.13537,141.34777l3.87959,1.89798c1.53696,1.59164-4.00952,9.81331-4.885,10.44339-1.31892.94919-5.33186.27419-7.0694.48677l8.07482-12.82813ZM157.81786,146.34441c-.52297-1.11624.33597-1.62976.77888-2.45857,1.63989-3.0684,3.93665-5.98905,5.98162-8.7986.52297,1.11624-.33596,1.62979-.77888,2.45857-1.63981,3.06842-3.93665,5.98905-5.98162,8.7986ZM162.85624,131.53356l-8.74793,14.28367c-1.65979-.83393-.97583-.71061-.40806-1.87098,2.70642-5.53108,7.02345-11.532,10.53324-16.6423l-1.37726,4.22962ZM150.35586,142.03753l-3.05729-5.69962c.42624-5.33228,4.28029-2.66291,6.2336-3.81787l7.13388-9.69263.01406,2.97356-10.32425,16.23656ZM154.96005,165.27264l-1.91284-1.7609c-.01847-1.95798,2.30394-3.78069,2.3858-5.5005.06198-1.30422-1.22324-2.64403-1.22536-4.53184-.00085-.75831,1.51146-4.71237,1.81361-4.77607l6.07435,5.57038-7.13555,10.99894ZM161.97643,162.81949c-.71767.52353-2.53316,4.01531-3.38295,4.17967l-2.05886-2.03768c2.56225-.42883,5.60412-9.59966,6.7374-9.84337,2.70118,1.48453,6.07937,1.21524,9.10529,1.23336-1.5421,4.59828-7.94768,4.67854-10.40087,6.46802ZM174.79084,158.44699c-.52066-1.12005.34806-1.62629.78313-2.45588,1.49621-2.8536,4.01441-6.95132,5.76731-9.75314,1.47051-2.35034,2.90304-4.97598,5.14643-6.64143.66862.46249-1.23326,3.9065-1.61452,4.61552-1.84448,3.43057-5.75334,9.48008-8.15726,12.52073-.58095.73476-.69011,1.73428-1.92508,1.7142ZM187.05288,151.07145c-.07549,1.65995,2.51903,2.57154,1.86695,4.38321-.96366,2.67703-6.17903,1.81099-8.36193,2.41822,3.35482-5.16331,6.24504-11.02953,10.04552-15.87881.57872-.73844.69298-1.73281,1.92501-1.71419,1.00729.61649-5.42768,9.73718-5.47554,10.79157ZM193.03088,139.51609c-.27031-2.67846-2.57227-2.41744-4.06623-3.71316l7.15321-.21055c.24736.15458-2.18641,4.4645-3.08698,3.92371ZM211.53911,138.85149c-1.42213-1.01831,1.64928-4.14741-.05753-4.88559-4.47833-1.93695-16.52664-.2697-21.89146-2.09872-3.76337-.27917-4.50797,4.58178-6.11263,6.8402-1.58476,2.23021-1.59429.04091-2.17948.02922-2.41413-.04826-5.34049,1.8185-7.92801.70482l34.28404-57.37255-35.92299,57.3774c-3.54704-1.9657-1.38831-7.73434-5.37017-8.33607l4.67756-8.19235-15.1759-18.05255c-2.21771-1.59117-3.30005,1.69539-5.24871,1.43927,2.41072-1.99944,6.24235-10.24765,8.03768-11.55592,1.68572-1.22839,2.80448.63415,4.26929-.38217l63.00338-49.56826-21.11597,34.60703c-4.99253,4.06702-12.63872,5.86992-14.0824,12.99259-.35722,1.76215.24794,3.11207-.43433,5.11749-1.93562,5.69029-10.96624,15.99901-13.88323,22.30102-.41287.89192-1.76665,3.517.26373,2.8739l15.32276-25.14872c-1.0379-10.07156,6.65227-10.89214,12.61605-15.56473,5.34486-4.18758,13.55019-21.20272,17.70795-27.91654,1.25522-2.02686,9.45774-15.67144,10.37203-15.9313.27728-.0788,1.61637.77027.64675,1.4869l-23.99865,41.11181c-2.08516,8.32656,1.33455,17.74753-8.44916,22.0505l-14.86413,24.90447,1.14839,1.28785,14.12334-24.30773c1.05999-1.88466,3.3132-2.08812,4.79755-3.36375,5.98685-5.14499,2.66715-15.216,5.61554-21.73091l19.39034-31.94799-14.2114,76.4202,1.98097,1.92125-7.3312,12.88994Z"></path>
            <path class="cls-11" fill="#00aeef" d="M195.05633,89.80726c-1.41032,1.17118-2.25545,3.97271-1.55373,5.7382,4.92957.51599,6.01101-9.43982,1.55373-5.7382Z"></path>
            <path class="cls-11" fill="#00aeef" d="M186.01468,78.81473l-2.17414,2.09238-2.49096,6.74597c1.35863.87633,4.33468-7.83599,4.6651-8.83834Z"></path>
          </g>
        </g>
        <g data-dc="leadship"><g class="cls-10" data-dc="thrusters" filter="url(#dcm-glow-3)">
          <polygon class="cls-4" fill="#ffa437" points="34.53098 294.65781 71.57688 272.06107 65.54941 243.51895 34.53098 294.65781"></polygon>
          <polygon class="cls-4" fill="#ffa437" points="95.63974 286.13199 74.00888 321.59458 125.14768 290.5762 95.63974 286.13199"></polygon>
        </g>
        <g data-dc="lead"><g><path class="cls-9" fill="#111111" d="M239.56637,113.23378l-54.82,130.68c-1.6,4.38,6.52.23,4.66,6.62-1.14,3.93-20.14,18.71-23.28,23.75l-3.03,1.02-2.44-1.7,1.79-9.8-16.15-4.42-17.26,17.88c1.4,6.74,2.9,8.87-3.48,13.45-12.07,1.7-27.65-2.6-39.44-.43-4.34.8-8.42,7.45-12.86,9.16-2.11.81-10.39,2.52-11.73.33-3.21-2.36,6-7.5,7.04-6.54l-2.5,5.99,6.48-4.49-6.45-4.53c-.47-.01-2.96,6.17-5.52,5.02-1.17-7.47,10.89-14.82,11.04-20.45l-4.03-16.54c-.66-3.95-2.95-16.57-2.95-16.57.07-1.27,5.13-7.3,5.66-7.41,3.28-.66,6.5,1.76,9.24.5,4.43-2.03,12.21-14.5,17.91-17l-8.02-15.38c-3.17-2.01-18.51,7.12-13.91-3.7,7.48-4.58,15.98-19.7,22.5-23.49,3.12-1.82,7.91-1.61,5.55,3.04l3.02-.48c42.02-18.22,83.67-44.97,125.63-62.37,2.37-.98,4.67-2.27,7.35-2.14Z"></path>
        <path class="cls-5" fill="#fafafa" d="M184.74961,243.7493l54.81592-130.68088c-2.68066-.13446-4.98193,1.16101-7.34778,2.14191-41.96497,17.40015-83.61536,44.14352-125.63086,62.36954l-3.01562.47473c2.35876-4.64569-2.43225-4.85956-5.55701-3.04059-6.51746,3.79388-15.01562,18.91241-22.49402,23.49402-4.60071,10.81519,10.73645,1.69257,13.90796,3.70178l8.01379,15.37927c-5.69641,2.49268-13.47705,14.96613-17.90564,16.99738-2.7384,1.25592-5.95776-1.15759-9.23743-.5-.5293.10614-5.59167,6.13599-5.66235,7.41351,0,0,2.28955,12.6189,2.94482,16.56891l4.03882,16.54114c-.15723,5.62537-12.21851,12.97235-11.04407,20.44861,2.55554,1.14478,5.04614-5.03296,5.51782-5.02301l6.4574,4.52869-6.48682,4.49292,2.50146-5.98822c-1.03882-.96497-10.25464,4.17285-7.04272,6.53735,1.34448,2.1911,9.62622.47931,11.73755-.33173,4.43774-1.70471,8.51147-8.36267,12.85815-9.16284,11.79004-2.17047,27.36499,2.13245,39.43347.43414,6.37952-4.58002,4.88757-6.70667,3.48083-13.453l17.25977-17.88214,16.1521,4.42029-1.7876,9.80127,2.4342,1.70447,3.03479-1.02234c3.13501-5.03668,22.13989-19.81927,23.28125-23.75073,1.85583-6.39221-6.26404-2.24274-4.6582-6.61444ZM98.56017,219.06471l4.0105,8.98907c-3.48914-.8291-4.62891-4.19794-8.99976-2.99994l4.98926-5.98914ZM89.08483,271.07759l-2.49988.98352c-7.12634-11.05182,2.01672-14.11566,9.47595-20.80737l7.03613,4.80005-14.01221,15.0238ZM105.07116,258.07948l5.30945,4.15839c1.83081,2.92999-9.30981,13.68701-10.85156,14.36517-2.32263,1.02161-8.23279-1.31213-10.95569-1.55151l16.4978-16.97205ZM81.5808,261.06324c-.4364-1.87469,1.04224-2.38019,1.98779-3.50232,3.50085-4.15424,7.95703-7.86957,11.99255-11.49695.4364,1.87469-1.04224,2.38025-1.98779,3.50232-3.50073,4.1543-7.95703,7.86957-11.99255,11.49695ZM94.08446,240.0771l-17.99841,18.97668c-2.2644-1.81256-1.25977-1.40216-.01587-2.99017,5.92932-7.56946,14.47119-15.33368,21.49097-21.99963l-3.47668,6.01312ZM71.58165,252.06257l-2.81934-9.698c2.38208-8.00604,7.4021-2.67773,10.7605-3.80768l14.04272-12.4884-.94385,4.54633-21.04004,21.44775ZM71.07103,289.04609l-2.34998-3.31055c.60742-2.99658,4.74634-5.02661,5.42969-7.62683.51807-1.97192-1.01001-4.43555-.40039-7.31964.24487-1.15851,3.83838-6.70691,4.32056-6.70612l7.46948,10.48004-14.46936,14.48309ZM82.5841,287.57698c-1.26611.56665-5.17261,5.31055-6.52393,5.28571l-2.48315-3.7807c4.05273.17682,11.67603-12.84302,13.48608-12.84735,3.6438,3.14435,8.89099,3.82971,13.50684,4.83972-3.84814,6.52271-13.65796,4.5658-17.98584,6.50262ZM103.57604,285.05854c-.43164-1.87976,1.05957-2.37097,1.99341-3.49683,3.21167-3.8728,8.38818-9.31409,11.9751-13.02448,3.00903-3.11249,6.04944-6.65778,10.0166-8.47327.87109.92346-3.15186,5.56635-3.96436,6.52551-3.93091,4.64099-11.86511,12.61194-16.52393,16.47577-1.12585.93365-1.61707,2.42487-3.49683,1.99329ZM124.69921,277.774c-.65417,2.51086,3.0127,4.74548,1.42859,7.3009-2.34094,3.776-10.02563.76013-13.55688.97894,6.80029-6.79724,13.11914-14.81891,20.49817-20.99182,1.12366-.94,1.62097-2.42169,3.4967-1.99329,1.33838,1.26862-11.45117,13.11035-11.86658,14.70526ZM137.58117,262.06526c.45667-4.17877-3.14404-4.5274-5.00525-6.99146l10.99402,2.00061c.32764.31641-4.78882,6.10919-5.98877,4.99084ZM166.06603,267.05861c-1.84155-2.01703,3.86548-5.79926,1.49817-7.48083-6.2113-4.41229-25.15491-5.7771-32.75525-10.31232-5.65747-1.64813-8.3728,5.53467-11.55688,8.4632-3.14453,2.89191-2.44836-.45508-3.33838-.6629-3.67163-.85742-8.74731,1.04382-12.33789-1.49719l70.98999-76.49982-73.49487,75.97516c-4.77954-4.15387.39038-12.26398-5.49609-14.47571l9.80396-10.99432-17.31885-32.49976c-2.87073-3.15027-5.59082,1.51819-8.48401.49438,4.33118-2.2713,12.86121-13.62555,16.02808-15.04095,2.97351-1.32898,4.07764,1.87903,6.6449.80225l112.32178-55.25635-43.48682,46.00305c-8.9458,4.59113-21.20972,4.86261-25.72705,15.27295-1.11768,2.5755-.63159,4.8338-2.32471,7.67535-4.80371,8.06287-21.94348,20.87653-28.4447,29.55511-.92017,1.22827-3.84009,4.79828-.53015,4.47516l31.56787-33.43732c1.68433-15.72003,13.69653-14.47687,24.32239-19.67761,9.52307-4.66089,27.57947-27.98572,36.1095-36.8905,2.5752-2.68829,19.53308-20.86591,21.01392-20.966.4491-.03033,2.21875,1.70123.50513,2.48102l-50.00146,55.0025c-5.88794,12.04089-3.72314,27.54047-20.06348,30.93658l-30.78809,33.21313,1.33594,2.33984,29.46289-32.54218c2.23083-2.53448,5.7384-2.11377,8.41968-3.58026,10.81445-5.91479,9.01343-22.37476,15.63171-31.36835l39.98792-42.50189-46.51501,112.10913,2.40198,3.57758-15.38208,17.30786Z"></path>
        <path class="cls-5" fill="#fafafa" d="M156.81212,186.79853c-2.5343,1.33099-4.73462,5.33563-4.23596,8.26001,7.36182,2.38843,12.24561-12.4668,4.23596-8.26001Z"></path>
        <path class="cls-5" fill="#fafafa" d="M146.57067,167.0735l-4,2.49005-5.99463,9.495c1.79065,1.77954,9.16455-10.56134,9.99463-11.98505Z"></path></g></g>
      </g>
      </g>
    </g>
  </g>
</svg>